<svg width="58" height="74" viewBox="0 0 58 74" fill="none" xmlns="http://www.w3.org/2000/svg">
<path d="M30.88 73.5748L26.43 65.1548L30.03 54.7448V48.3748L19.03 54.7448V61.1148L23.77 69.3248C23.8466 69.4539 23.9621 69.5554 24.1 69.6148L30.88 73.5748Z" fill="#FF9000"/>
<path opacity="0.2" d="M30.88 73.5748L26.43 65.1548L30.03 54.7448V48.3748L19.03 54.7448V61.1148L23.77 69.3248C23.8466 69.4539 23.9621 69.5554 24.1 69.6148L30.88 73.5748Z" fill="#FF9000"/>
<path d="M57.22 8.07477C57.1578 6.92666 56.8256 5.8094 56.2505 4.81378C55.6754 3.81816 54.8735 2.97225 53.91 2.34477L51.22 0.794771C50.1948 0.272348 49.0606 0 47.91 0C46.7594 0 45.6252 0.272348 44.6 0.794771L3.31 24.6748C2.34596 25.3017 1.54365 26.1474 0.968445 27.1432C0.393241 28.1389 0.0614164 29.2565 0 30.4048V65.5148C0.0614164 66.6631 0.393241 67.7806 0.968445 68.7764C1.54365 69.7721 2.34596 70.6179 3.31 71.2448L6 72.8048C7.02655 73.3225 8.16026 73.5923 9.31 73.5923C10.4597 73.5923 11.5934 73.3225 12.62 72.8048L25.9 65.1248L30.63 73.3248C30.6984 73.441 30.7985 73.5354 30.9186 73.5968C31.0387 73.6582 31.1738 73.6841 31.3081 73.6715C31.4424 73.6589 31.5704 73.6083 31.6769 73.5257C31.7835 73.443 31.8644 73.3317 31.91 73.2048L36.91 58.7648L53.91 48.9148C54.874 48.2879 55.6764 47.4421 56.2516 46.4464C56.8268 45.4506 57.1586 44.3331 57.22 43.1848V8.07477Z" fill="#FF9000"/>
<path opacity="0.2" d="M0 65.5148C0.0614164 66.6631 0.393241 67.7806 0.968445 68.7764C1.54365 69.7721 2.34596 70.6179 3.31 71.2448L6 72.8048C6.93308 73.2723 7.9545 73.5371 8.99719 73.582C10.0399 73.6268 11.0802 73.4505 12.05 73.0648C10.5 73.6548 9.31 72.7748 9.31 70.8948V35.7748C9.35972 34.6206 9.70397 33.4983 10.31 32.5148L1 27.1448C0.391507 28.1272 0.0470511 29.2501 0 30.4048V65.5148Z" fill="#FF9000"/>
<path opacity="0.5" d="M57.11 7.13476C56.72 5.72476 55.44 5.28476 53.92 6.13476L12.61 30.0548C11.6329 30.6554 10.8324 31.5042 10.29 32.5148L0.97998 27.1548C1.52869 26.1429 2.33179 25.2915 3.31 24.6848L44.6 0.794764C45.6266 0.276989 46.7603 0.00726318 47.91 0.00726318C49.0597 0.00726318 50.1934 0.276989 51.22 0.794764L53.92 2.35476C54.7478 2.8938 55.4575 3.59547 56.0059 4.41717C56.5542 5.23887 56.9299 6.16344 57.11 7.13476Z" fill="white"/>
<path d="M33.63 35.3147C33.5322 34.7449 33.5719 34.1599 33.7458 33.6086C33.9198 33.0572 34.2229 32.5553 34.63 32.1447C39.53 27.8447 41.42 29.8147 44.23 32.8747C47.04 35.9347 50.34 29.8747 49.33 27.1647C48.32 24.4547 46.22 27.5547 46.22 27.5547C46.22 26.7847 48.22 23.4547 50.05 24.0947C52.79 25.0947 52.76 29.9447 52.15 32.5147C50.95 37.5147 48.95 40.9147 43.15 42.5147C41.9327 42.8501 40.6497 42.8672 39.424 42.5643C38.1982 42.2613 37.0709 41.6486 36.15 40.7847C34.7067 39.3049 33.8169 37.3734 33.63 35.3147Z" fill="#455A64"/>
<path d="M30.54 34.2047C25.74 35.8947 24.86 39.3847 22.06 45.6747C19.35 51.7547 15.94 49.7647 16.95 45.8747C17.96 41.9847 20.06 42.6647 20.06 42.6647C20.06 41.8647 18.06 40.9047 16.23 43.6647C13.49 47.7947 14.18 52.0447 14.96 53.3747C16.68 56.2647 20.57 56.1547 25.47 52.9447C28.4026 51.0788 30.7031 48.3705 32.07 45.1747C33.2127 42.234 33.6178 39.0582 33.25 35.9247C33.227 35.6137 33.1315 35.3124 32.9713 35.0448C32.8111 34.7773 32.5905 34.5509 32.3272 34.3838C32.0639 34.2167 31.7651 34.1134 31.4548 34.0823C31.1445 34.0513 30.8312 34.0932 30.54 34.2047Z" fill="#455A64"/>
</svg>
