<svg width="32" height="32" viewBox="0 0 32 32" fill="none" xmlns="http://www.w3.org/2000/svg">
<path d="M31.609 29.7247L22.5091 20.6248C24.2718 18.4475 25.3331 15.6808 25.3331 12.6675C25.3331 5.68361 19.6504 0.000976562 12.6665 0.000976562C5.68257 0.000976562 0 5.68355 0 12.6675C0 19.6514 5.68263 25.334 12.6666 25.334C15.6798 25.334 18.4465 24.2727 20.6238 22.5101L29.7237 31.61C29.9837 31.87 30.325 32.0007 30.6664 32.0007C31.0078 32.0007 31.3491 31.87 31.6091 31.61C32.1304 31.0887 32.1304 30.246 31.609 29.7247ZM12.6666 22.6674C7.15193 22.6674 2.66666 18.1821 2.66666 12.6675C2.66666 7.15284 7.15193 2.66758 12.6666 2.66758C18.1812 2.66758 22.6665 7.15284 22.6665 12.6675C22.6665 18.1821 18.1811 22.6674 12.6666 22.6674Z" fill="white"/>
</svg>
