<?xml version="1.0" standalone="no"?>
<!DOCTYPE svg PUBLIC "-//W3C//DTD SVG 20010904//EN"
 "http://www.w3.org/TR/2001/REC-SVG-20010904/DTD/svg10.dtd">
<svg version="1.0" xmlns="http://www.w3.org/2000/svg"
 width="1024.000000pt" height="1024.000000pt" viewBox="0 0 1024.000000 1024.000000"
 preserveAspectRatio="xMidYMid meet">
<metadata>
Created by potrace 1.14, written by Peter Selinger 2001-2017
</metadata>
<g transform="translate(0.000000,1024.000000) scale(0.100000,-0.100000)"
fill="#000000" stroke="none">
<path d="M7688 10233 c7 -3 16 -2 19 1 4 3 -2 6 -13 5 -11 0 -14 -3 -6 -6z"/>
<path d="M7898 10233 c7 -3 16 -2 19 1 4 3 -2 6 -13 5 -11 0 -14 -3 -6 -6z"/>
<path d="M9095 6680 c0 -1350 1 -1903 2 -1227 2 675 2 1779 0 2455 -1 675 -2
122 -2 -1228z"/>
<path d="M7937 6880 c-70 -27 -150 -93 -222 -183 -60 -75 -145 -223 -145 -253
0 -7 33 19 73 59 86 88 149 122 210 114 60 -8 116 -72 147 -167 20 -62 22 -84
17 -183 -6 -129 -30 -223 -86 -343 -138 -293 -348 -430 -526 -344 -36 18 -102
76 -230 206 -239 241 -344 308 -510 329 -154 19 -353 -63 -587 -242 -215 -165
-277 -284 -264 -503 23 -381 221 -737 511 -919 164 -103 340 -153 540 -153
140 0 229 17 400 74 527 175 843 489 1025 1014 100 289 140 504 140 750 0 385
-101 638 -292 733 -72 36 -129 39 -201 11z"/>
<path d="M1141 6074 c0 -11 3 -14 6 -6 3 7 2 16 -1 19 -3 4 -6 -2 -5 -13z"/>
<path d="M5350 5471 c-282 -105 -476 -264 -649 -531 -83 -127 -202 -372 -356
-730 -154 -358 -209 -472 -275 -572 -135 -205 -295 -312 -418 -278 -62 16
-126 79 -154 148 -19 48 -22 75 -22 177 1 100 5 135 28 210 79 267 212 419
368 420 32 0 58 2 58 3 0 2 -7 17 -17 32 -53 91 -213 96 -336 12 -133 -92
-279 -317 -365 -563 -69 -196 -101 -441 -83 -627 23 -230 73 -355 186 -467
119 -120 248 -169 440 -168 193 0 374 52 630 178 254 125 482 284 674 470 326
315 536 679 642 1110 55 226 72 375 73 635 0 144 -5 264 -12 309 -37 220 -200
311 -412 232z"/>
<path d="M1142 1080 c0 -14 2 -19 5 -12 2 6 2 18 0 25 -3 6 -5 1 -5 -13z"/>
</g>
</svg>
